<mxfile host="app.diagrams.net" modified="2023-10-11T15:07:50.501Z" agent="Mozilla/5.0 (Windows NT 10.0; Win64; x64) AppleWebKit/537.36 (KHTML, like Gecko) Chrome/117.0.0.0 Safari/537.36" etag="zgBpTDDlCDx7CcFTVPUa" version="22.0.4" type="github">
  <diagram id="C5RBs43oDa-KdzZeNtuy" name="Page-1">
    <mxGraphModel dx="1195" dy="632" grid="1" gridSize="10" guides="1" tooltips="1" connect="1" arrows="1" fold="1" page="1" pageScale="1" pageWidth="827" pageHeight="1169" math="0" shadow="0">
      <root>
        <mxCell id="WIyWlLk6GJQsqaUBKTNV-0" />
        <mxCell id="WIyWlLk6GJQsqaUBKTNV-1" parent="WIyWlLk6GJQsqaUBKTNV-0" />
        <mxCell id="cfZGZZkKTrrLzm3ARtIg-4" style="edgeStyle=orthogonalEdgeStyle;rounded=0;orthogonalLoop=1;jettySize=auto;html=1;entryX=0;entryY=0.5;entryDx=0;entryDy=0;" parent="WIyWlLk6GJQsqaUBKTNV-1" source="cfZGZZkKTrrLzm3ARtIg-0" target="cfZGZZkKTrrLzm3ARtIg-3" edge="1">
          <mxGeometry relative="1" as="geometry">
            <mxPoint x="230" y="180" as="targetPoint" />
          </mxGeometry>
        </mxCell>
        <mxCell id="cfZGZZkKTrrLzm3ARtIg-15" style="edgeStyle=orthogonalEdgeStyle;rounded=0;orthogonalLoop=1;jettySize=auto;html=1;entryX=0;entryY=0.5;entryDx=0;entryDy=0;" parent="WIyWlLk6GJQsqaUBKTNV-1" source="cfZGZZkKTrrLzm3ARtIg-0" target="cfZGZZkKTrrLzm3ARtIg-14" edge="1">
          <mxGeometry relative="1" as="geometry" />
        </mxCell>
        <mxCell id="GQiB1Gxnlt8KOXEiArso-35" style="edgeStyle=orthogonalEdgeStyle;rounded=0;orthogonalLoop=1;jettySize=auto;html=1;entryX=0;entryY=0.5;entryDx=0;entryDy=0;" edge="1" parent="WIyWlLk6GJQsqaUBKTNV-1" source="cfZGZZkKTrrLzm3ARtIg-0" target="GQiB1Gxnlt8KOXEiArso-34">
          <mxGeometry relative="1" as="geometry" />
        </mxCell>
        <mxCell id="cfZGZZkKTrrLzm3ARtIg-0" value="ANR原因" style="whiteSpace=wrap;align=center;verticalAlign=middle;fontStyle=1;strokeWidth=3;fillColor=#f8cecc;strokeColor=#b85450;" parent="WIyWlLk6GJQsqaUBKTNV-1" vertex="1">
          <mxGeometry x="60" y="583" width="90" height="40" as="geometry" />
        </mxCell>
        <mxCell id="cfZGZZkKTrrLzm3ARtIg-6" style="edgeStyle=orthogonalEdgeStyle;rounded=0;orthogonalLoop=1;jettySize=auto;html=1;entryX=0;entryY=0.5;entryDx=0;entryDy=0;fillColor=#ffe6cc;strokeColor=#000000;" parent="WIyWlLk6GJQsqaUBKTNV-1" source="cfZGZZkKTrrLzm3ARtIg-3" target="cfZGZZkKTrrLzm3ARtIg-5" edge="1">
          <mxGeometry relative="1" as="geometry" />
        </mxCell>
        <mxCell id="cfZGZZkKTrrLzm3ARtIg-10" style="edgeStyle=orthogonalEdgeStyle;rounded=0;orthogonalLoop=1;jettySize=auto;html=1;fillColor=#ffe6cc;strokeColor=#000000;" parent="WIyWlLk6GJQsqaUBKTNV-1" source="cfZGZZkKTrrLzm3ARtIg-3" target="cfZGZZkKTrrLzm3ARtIg-9" edge="1">
          <mxGeometry relative="1" as="geometry" />
        </mxCell>
        <mxCell id="cfZGZZkKTrrLzm3ARtIg-12" style="edgeStyle=orthogonalEdgeStyle;rounded=0;orthogonalLoop=1;jettySize=auto;html=1;entryX=0;entryY=0.5;entryDx=0;entryDy=0;fillColor=#ffe6cc;strokeColor=#000000;" parent="WIyWlLk6GJQsqaUBKTNV-1" source="cfZGZZkKTrrLzm3ARtIg-3" target="cfZGZZkKTrrLzm3ARtIg-11" edge="1">
          <mxGeometry relative="1" as="geometry" />
        </mxCell>
        <mxCell id="cfZGZZkKTrrLzm3ARtIg-3" value="应用原因" style="whiteSpace=wrap;align=center;verticalAlign=middle;fontStyle=1;strokeWidth=3;fillColor=#ffe6cc;strokeColor=#d79b00;" parent="WIyWlLk6GJQsqaUBKTNV-1" vertex="1">
          <mxGeometry x="250" y="160" width="90" height="30" as="geometry" />
        </mxCell>
        <mxCell id="cfZGZZkKTrrLzm3ARtIg-8" style="edgeStyle=orthogonalEdgeStyle;rounded=0;orthogonalLoop=1;jettySize=auto;html=1;entryX=0;entryY=0.5;entryDx=0;entryDy=0;fillColor=#ffe6cc;strokeColor=#000000;" parent="WIyWlLk6GJQsqaUBKTNV-1" source="cfZGZZkKTrrLzm3ARtIg-5" target="cfZGZZkKTrrLzm3ARtIg-7" edge="1">
          <mxGeometry relative="1" as="geometry" />
        </mxCell>
        <mxCell id="cfZGZZkKTrrLzm3ARtIg-5" value="主线程耗时" style="whiteSpace=wrap;align=center;verticalAlign=middle;fontStyle=1;strokeWidth=3;fillColor=#ffe6cc;strokeColor=#d79b00;" parent="WIyWlLk6GJQsqaUBKTNV-1" vertex="1">
          <mxGeometry x="400" y="110" width="90" height="30" as="geometry" />
        </mxCell>
        <mxCell id="cfZGZZkKTrrLzm3ARtIg-7" value="主线程阻塞（Blocked）、死锁、死循环" style="whiteSpace=wrap;align=center;verticalAlign=middle;fontStyle=1;strokeWidth=3;fillColor=#ffe6cc;strokeColor=#d79b00;" parent="WIyWlLk6GJQsqaUBKTNV-1" vertex="1">
          <mxGeometry x="540" y="110" width="250" height="30" as="geometry" />
        </mxCell>
        <mxCell id="cfZGZZkKTrrLzm3ARtIg-9" value="Binder对端耗时" style="whiteSpace=wrap;align=center;verticalAlign=middle;fontStyle=1;strokeWidth=3;fillColor=#ffe6cc;strokeColor=#d79b00;" parent="WIyWlLk6GJQsqaUBKTNV-1" vertex="1">
          <mxGeometry x="400" y="160" width="90" height="30" as="geometry" />
        </mxCell>
        <mxCell id="cfZGZZkKTrrLzm3ARtIg-11" value="应用内存泄漏" style="whiteSpace=wrap;align=center;verticalAlign=middle;fontStyle=1;strokeWidth=3;fillColor=#ffe6cc;strokeColor=#d79b00;" parent="WIyWlLk6GJQsqaUBKTNV-1" vertex="1">
          <mxGeometry x="400" y="210" width="90" height="30" as="geometry" />
        </mxCell>
        <mxCell id="cfZGZZkKTrrLzm3ARtIg-13" value="相邻应用耗时" style="whiteSpace=wrap;align=center;verticalAlign=middle;fontStyle=1;strokeWidth=3;fillColor=#ffe6cc;strokeColor=#d79b00;" parent="WIyWlLk6GJQsqaUBKTNV-1" vertex="1">
          <mxGeometry x="400" y="260" width="90" height="30" as="geometry" />
        </mxCell>
        <mxCell id="GQiB1Gxnlt8KOXEiArso-1" style="edgeStyle=orthogonalEdgeStyle;rounded=0;orthogonalLoop=1;jettySize=auto;html=1;entryX=0;entryY=0.5;entryDx=0;entryDy=0;" edge="1" parent="WIyWlLk6GJQsqaUBKTNV-1" target="GQiB1Gxnlt8KOXEiArso-0">
          <mxGeometry relative="1" as="geometry">
            <mxPoint x="340" y="602" as="sourcePoint" />
          </mxGeometry>
        </mxCell>
        <mxCell id="GQiB1Gxnlt8KOXEiArso-10" style="edgeStyle=orthogonalEdgeStyle;rounded=0;orthogonalLoop=1;jettySize=auto;html=1;entryX=0;entryY=0.5;entryDx=0;entryDy=0;" edge="1" parent="WIyWlLk6GJQsqaUBKTNV-1" source="cfZGZZkKTrrLzm3ARtIg-14" target="GQiB1Gxnlt8KOXEiArso-8">
          <mxGeometry relative="1" as="geometry" />
        </mxCell>
        <mxCell id="GQiB1Gxnlt8KOXEiArso-19" style="edgeStyle=orthogonalEdgeStyle;rounded=0;orthogonalLoop=1;jettySize=auto;html=1;entryX=0;entryY=0.5;entryDx=0;entryDy=0;" edge="1" parent="WIyWlLk6GJQsqaUBKTNV-1" source="cfZGZZkKTrrLzm3ARtIg-14" target="GQiB1Gxnlt8KOXEiArso-18">
          <mxGeometry relative="1" as="geometry" />
        </mxCell>
        <mxCell id="GQiB1Gxnlt8KOXEiArso-22" style="edgeStyle=orthogonalEdgeStyle;rounded=0;orthogonalLoop=1;jettySize=auto;html=1;entryX=0;entryY=0.5;entryDx=0;entryDy=0;" edge="1" parent="WIyWlLk6GJQsqaUBKTNV-1" source="cfZGZZkKTrrLzm3ARtIg-14" target="GQiB1Gxnlt8KOXEiArso-20">
          <mxGeometry relative="1" as="geometry" />
        </mxCell>
        <mxCell id="GQiB1Gxnlt8KOXEiArso-27" style="edgeStyle=orthogonalEdgeStyle;rounded=0;orthogonalLoop=1;jettySize=auto;html=1;entryX=0;entryY=0.5;entryDx=0;entryDy=0;" edge="1" parent="WIyWlLk6GJQsqaUBKTNV-1" source="cfZGZZkKTrrLzm3ARtIg-14" target="GQiB1Gxnlt8KOXEiArso-24">
          <mxGeometry relative="1" as="geometry" />
        </mxCell>
        <mxCell id="GQiB1Gxnlt8KOXEiArso-33" style="edgeStyle=orthogonalEdgeStyle;rounded=0;orthogonalLoop=1;jettySize=auto;html=1;entryX=0;entryY=0.5;entryDx=0;entryDy=0;" edge="1" parent="WIyWlLk6GJQsqaUBKTNV-1" source="cfZGZZkKTrrLzm3ARtIg-14" target="GQiB1Gxnlt8KOXEiArso-30">
          <mxGeometry relative="1" as="geometry" />
        </mxCell>
        <mxCell id="cfZGZZkKTrrLzm3ARtIg-14" value="系统原因" style="whiteSpace=wrap;align=center;verticalAlign=middle;fontStyle=1;strokeWidth=3;fillColor=#fff2cc;strokeColor=#d6b656;" parent="WIyWlLk6GJQsqaUBKTNV-1" vertex="1">
          <mxGeometry x="250" y="588" width="90" height="30" as="geometry" />
        </mxCell>
        <mxCell id="GQiB1Gxnlt8KOXEiArso-5" style="edgeStyle=orthogonalEdgeStyle;rounded=0;orthogonalLoop=1;jettySize=auto;html=1;entryX=0;entryY=0.5;entryDx=0;entryDy=0;" edge="1" parent="WIyWlLk6GJQsqaUBKTNV-1" source="GQiB1Gxnlt8KOXEiArso-0" target="GQiB1Gxnlt8KOXEiArso-2">
          <mxGeometry relative="1" as="geometry">
            <Array as="points">
              <mxPoint x="500" y="354" />
              <mxPoint x="500" y="314" />
            </Array>
          </mxGeometry>
        </mxCell>
        <mxCell id="GQiB1Gxnlt8KOXEiArso-6" style="edgeStyle=orthogonalEdgeStyle;rounded=0;orthogonalLoop=1;jettySize=auto;html=1;entryX=0;entryY=0.5;entryDx=0;entryDy=0;" edge="1" parent="WIyWlLk6GJQsqaUBKTNV-1" source="GQiB1Gxnlt8KOXEiArso-0" target="GQiB1Gxnlt8KOXEiArso-3">
          <mxGeometry relative="1" as="geometry" />
        </mxCell>
        <mxCell id="GQiB1Gxnlt8KOXEiArso-7" style="edgeStyle=orthogonalEdgeStyle;rounded=0;orthogonalLoop=1;jettySize=auto;html=1;entryX=0;entryY=0.5;entryDx=0;entryDy=0;" edge="1" parent="WIyWlLk6GJQsqaUBKTNV-1" source="GQiB1Gxnlt8KOXEiArso-0" target="GQiB1Gxnlt8KOXEiArso-4">
          <mxGeometry relative="1" as="geometry">
            <Array as="points">
              <mxPoint x="500" y="354" />
              <mxPoint x="500" y="394" />
            </Array>
          </mxGeometry>
        </mxCell>
        <mxCell id="GQiB1Gxnlt8KOXEiArso-0" value="iowait过高" style="whiteSpace=wrap;align=center;verticalAlign=middle;fontStyle=1;strokeWidth=3;fillColor=#fff2cc;strokeColor=#d6b656;" vertex="1" parent="WIyWlLk6GJQsqaUBKTNV-1">
          <mxGeometry x="400" y="339" width="90" height="30" as="geometry" />
        </mxCell>
        <mxCell id="GQiB1Gxnlt8KOXEiArso-2" value="某个应用native crash，做coredump操作" style="whiteSpace=wrap;align=center;verticalAlign=middle;fontStyle=1;strokeWidth=3;fillColor=#fff2cc;strokeColor=#d6b656;" vertex="1" parent="WIyWlLk6GJQsqaUBKTNV-1">
          <mxGeometry x="540" y="299" width="250" height="30" as="geometry" />
        </mxCell>
        <mxCell id="GQiB1Gxnlt8KOXEiArso-3" value="modem log数据量过大" style="whiteSpace=wrap;align=center;verticalAlign=middle;fontStyle=1;strokeWidth=3;fillColor=#fff2cc;strokeColor=#d6b656;" vertex="1" parent="WIyWlLk6GJQsqaUBKTNV-1">
          <mxGeometry x="540" y="339" width="250" height="30" as="geometry" />
        </mxCell>
        <mxCell id="GQiB1Gxnlt8KOXEiArso-4" value="tcpdump数据量过大" style="whiteSpace=wrap;align=center;verticalAlign=middle;fontStyle=1;strokeWidth=3;fillColor=#fff2cc;strokeColor=#d6b656;" vertex="1" parent="WIyWlLk6GJQsqaUBKTNV-1">
          <mxGeometry x="540" y="379" width="250" height="30" as="geometry" />
        </mxCell>
        <mxCell id="GQiB1Gxnlt8KOXEiArso-14" style="edgeStyle=orthogonalEdgeStyle;rounded=0;orthogonalLoop=1;jettySize=auto;html=1;entryX=0;entryY=0.5;entryDx=0;entryDy=0;" edge="1" parent="WIyWlLk6GJQsqaUBKTNV-1" target="GQiB1Gxnlt8KOXEiArso-9">
          <mxGeometry relative="1" as="geometry">
            <mxPoint x="475" y="498" as="sourcePoint" />
            <mxPoint x="525" y="438" as="targetPoint" />
          </mxGeometry>
        </mxCell>
        <mxCell id="GQiB1Gxnlt8KOXEiArso-15" style="edgeStyle=orthogonalEdgeStyle;rounded=0;orthogonalLoop=1;jettySize=auto;html=1;entryX=0;entryY=0.5;entryDx=0;entryDy=0;" edge="1" parent="WIyWlLk6GJQsqaUBKTNV-1" target="GQiB1Gxnlt8KOXEiArso-11">
          <mxGeometry relative="1" as="geometry">
            <mxPoint x="475" y="498" as="sourcePoint" />
          </mxGeometry>
        </mxCell>
        <mxCell id="GQiB1Gxnlt8KOXEiArso-16" style="edgeStyle=orthogonalEdgeStyle;rounded=0;orthogonalLoop=1;jettySize=auto;html=1;entryX=0;entryY=0.5;entryDx=0;entryDy=0;" edge="1" parent="WIyWlLk6GJQsqaUBKTNV-1" target="GQiB1Gxnlt8KOXEiArso-12">
          <mxGeometry relative="1" as="geometry">
            <mxPoint x="475" y="498" as="sourcePoint" />
          </mxGeometry>
        </mxCell>
        <mxCell id="GQiB1Gxnlt8KOXEiArso-17" style="edgeStyle=orthogonalEdgeStyle;rounded=0;orthogonalLoop=1;jettySize=auto;html=1;entryX=0;entryY=0.5;entryDx=0;entryDy=0;" edge="1" parent="WIyWlLk6GJQsqaUBKTNV-1" target="GQiB1Gxnlt8KOXEiArso-13">
          <mxGeometry relative="1" as="geometry">
            <mxPoint x="475" y="498" as="sourcePoint" />
          </mxGeometry>
        </mxCell>
        <mxCell id="GQiB1Gxnlt8KOXEiArso-8" value="内存问题" style="whiteSpace=wrap;align=center;verticalAlign=middle;fontStyle=1;strokeWidth=3;fillColor=#fff2cc;strokeColor=#d6b656;" vertex="1" parent="WIyWlLk6GJQsqaUBKTNV-1">
          <mxGeometry x="400" y="483" width="90" height="30" as="geometry" />
        </mxCell>
        <mxCell id="GQiB1Gxnlt8KOXEiArso-9" value="ION泄露、slab泄露、surfaceflinger泄露" style="whiteSpace=wrap;align=center;verticalAlign=middle;fontStyle=1;strokeWidth=3;fillColor=#fff2cc;strokeColor=#d6b656;" vertex="1" parent="WIyWlLk6GJQsqaUBKTNV-1">
          <mxGeometry x="540" y="423" width="250" height="30" as="geometry" />
        </mxCell>
        <mxCell id="GQiB1Gxnlt8KOXEiArso-11" value="lmkd没有回收动作或者杀得不积极" style="whiteSpace=wrap;align=center;verticalAlign=middle;fontStyle=1;strokeWidth=3;fillColor=#fff2cc;strokeColor=#d6b656;" vertex="1" parent="WIyWlLk6GJQsqaUBKTNV-1">
          <mxGeometry x="540" y="462" width="250" height="30" as="geometry" />
        </mxCell>
        <mxCell id="GQiB1Gxnlt8KOXEiArso-12" value="fast kill未生效，没有回收足够的内存" style="whiteSpace=wrap;align=center;verticalAlign=middle;fontStyle=1;strokeWidth=3;fillColor=#fff2cc;strokeColor=#d6b656;" vertex="1" parent="WIyWlLk6GJQsqaUBKTNV-1">
          <mxGeometry x="540" y="503" width="250" height="30" as="geometry" />
        </mxCell>
        <mxCell id="GQiB1Gxnlt8KOXEiArso-13" value="某个应用占内存过大/monkey下应用切换过快" style="whiteSpace=wrap;align=center;verticalAlign=middle;fontStyle=1;strokeWidth=3;fillColor=#fff2cc;strokeColor=#d6b656;" vertex="1" parent="WIyWlLk6GJQsqaUBKTNV-1">
          <mxGeometry x="540" y="543" width="250" height="30" as="geometry" />
        </mxCell>
        <mxCell id="GQiB1Gxnlt8KOXEiArso-18" value="CPU负载过大" style="whiteSpace=wrap;align=center;verticalAlign=middle;fontStyle=1;strokeWidth=3;fillColor=#fff2cc;strokeColor=#d6b656;" vertex="1" parent="WIyWlLk6GJQsqaUBKTNV-1">
          <mxGeometry x="400" y="588" width="90" height="30" as="geometry" />
        </mxCell>
        <mxCell id="GQiB1Gxnlt8KOXEiArso-23" style="edgeStyle=orthogonalEdgeStyle;rounded=0;orthogonalLoop=1;jettySize=auto;html=1;entryX=0;entryY=0.5;entryDx=0;entryDy=0;" edge="1" parent="WIyWlLk6GJQsqaUBKTNV-1" source="GQiB1Gxnlt8KOXEiArso-20" target="GQiB1Gxnlt8KOXEiArso-21">
          <mxGeometry relative="1" as="geometry" />
        </mxCell>
        <mxCell id="GQiB1Gxnlt8KOXEiArso-20" value="进程被冻结" style="whiteSpace=wrap;align=center;verticalAlign=middle;fontStyle=1;strokeWidth=3;fillColor=#fff2cc;strokeColor=#d6b656;" vertex="1" parent="WIyWlLk6GJQsqaUBKTNV-1">
          <mxGeometry x="400" y="660" width="90" height="30" as="geometry" />
        </mxCell>
        <mxCell id="GQiB1Gxnlt8KOXEiArso-21" value="被freeze后一直没有unfreeze" style="whiteSpace=wrap;align=center;verticalAlign=middle;fontStyle=1;strokeWidth=3;fillColor=#fff2cc;strokeColor=#d6b656;" vertex="1" parent="WIyWlLk6GJQsqaUBKTNV-1">
          <mxGeometry x="540" y="660" width="250" height="30" as="geometry" />
        </mxCell>
        <mxCell id="GQiB1Gxnlt8KOXEiArso-26" style="edgeStyle=orthogonalEdgeStyle;rounded=0;orthogonalLoop=1;jettySize=auto;html=1;entryX=0;entryY=0.5;entryDx=0;entryDy=0;" edge="1" parent="WIyWlLk6GJQsqaUBKTNV-1" source="GQiB1Gxnlt8KOXEiArso-24" target="GQiB1Gxnlt8KOXEiArso-25">
          <mxGeometry relative="1" as="geometry" />
        </mxCell>
        <mxCell id="GQiB1Gxnlt8KOXEiArso-29" style="edgeStyle=orthogonalEdgeStyle;rounded=0;orthogonalLoop=1;jettySize=auto;html=1;entryX=0;entryY=0.5;entryDx=0;entryDy=0;" edge="1" parent="WIyWlLk6GJQsqaUBKTNV-1" source="GQiB1Gxnlt8KOXEiArso-24" target="GQiB1Gxnlt8KOXEiArso-28">
          <mxGeometry relative="1" as="geometry" />
        </mxCell>
        <mxCell id="GQiB1Gxnlt8KOXEiArso-24" value="锁屏" style="whiteSpace=wrap;align=center;verticalAlign=middle;fontStyle=1;strokeWidth=3;fillColor=#fff2cc;strokeColor=#d6b656;" vertex="1" parent="WIyWlLk6GJQsqaUBKTNV-1">
          <mxGeometry x="400" y="730" width="90" height="30" as="geometry" />
        </mxCell>
        <mxCell id="GQiB1Gxnlt8KOXEiArso-25" value="systemui被杀(ANR后被杀/低内存被lmkd杀)" style="whiteSpace=wrap;align=center;verticalAlign=middle;fontStyle=1;strokeWidth=3;fillColor=#fff2cc;strokeColor=#d6b656;" vertex="1" parent="WIyWlLk6GJQsqaUBKTNV-1">
          <mxGeometry x="540" y="710" width="250" height="30" as="geometry" />
        </mxCell>
        <mxCell id="GQiB1Gxnlt8KOXEiArso-28" value="monkey测试过程中设备熄屏" style="whiteSpace=wrap;align=center;verticalAlign=middle;fontStyle=1;strokeWidth=3;fillColor=#fff2cc;strokeColor=#d6b656;" vertex="1" parent="WIyWlLk6GJQsqaUBKTNV-1">
          <mxGeometry x="540" y="750" width="250" height="30" as="geometry" />
        </mxCell>
        <mxCell id="GQiB1Gxnlt8KOXEiArso-32" style="edgeStyle=orthogonalEdgeStyle;rounded=0;orthogonalLoop=1;jettySize=auto;html=1;entryX=0;entryY=0.5;entryDx=0;entryDy=0;" edge="1" parent="WIyWlLk6GJQsqaUBKTNV-1" source="GQiB1Gxnlt8KOXEiArso-30" target="GQiB1Gxnlt8KOXEiArso-31">
          <mxGeometry relative="1" as="geometry" />
        </mxCell>
        <mxCell id="GQiB1Gxnlt8KOXEiArso-30" value="低电量关机" style="whiteSpace=wrap;align=center;verticalAlign=middle;fontStyle=1;strokeWidth=3;fillColor=#fff2cc;strokeColor=#d6b656;" vertex="1" parent="WIyWlLk6GJQsqaUBKTNV-1">
          <mxGeometry x="400" y="800" width="90" height="30" as="geometry" />
        </mxCell>
        <mxCell id="GQiB1Gxnlt8KOXEiArso-31" value="Lowbattery shutdown" style="whiteSpace=wrap;align=center;verticalAlign=middle;fontStyle=1;strokeWidth=3;fillColor=#fff2cc;strokeColor=#d6b656;" vertex="1" parent="WIyWlLk6GJQsqaUBKTNV-1">
          <mxGeometry x="540" y="800" width="250" height="30" as="geometry" />
        </mxCell>
        <mxCell id="GQiB1Gxnlt8KOXEiArso-34" value="Binder异常" style="whiteSpace=wrap;align=center;verticalAlign=middle;fontStyle=1;strokeWidth=3;fillColor=#d5e8d4;strokeColor=#82b366;" vertex="1" parent="WIyWlLk6GJQsqaUBKTNV-1">
          <mxGeometry x="250" y="880" width="90" height="30" as="geometry" />
        </mxCell>
        <mxCell id="GQiB1Gxnlt8KOXEiArso-36" value="Binder通讯阻塞" style="whiteSpace=wrap;align=center;verticalAlign=middle;fontStyle=1;strokeWidth=3;fillColor=#d5e8d4;strokeColor=#82b366;" vertex="1" parent="WIyWlLk6GJQsqaUBKTNV-1">
          <mxGeometry x="400" y="850" width="90" height="30" as="geometry" />
        </mxCell>
      </root>
    </mxGraphModel>
  </diagram>
</mxfile>
